<?xml version="1.0" encoding="utf-8"?>
<!-- Generator: Adobe Illustrator 19.2.1, SVG Export Plug-In . SVG Version: 6.00 Build 0)  -->
<svg version="1.1" id="layer" xmlns="http://www.w3.org/2000/svg" xmlns:xlink="http://www.w3.org/1999/xlink" x="0px" y="0px"
	 viewBox="0 0 652 652" style="enable-background:new 0 0 652 652;" xml:space="preserve">
<style type="text/css">
	.st0{fill:#F47735;}
</style>
<path d="M25.3,279.1h20.9v37.6h38.5v-37.6h20.9v95H84.7V336H46.1v38.1H25.3V279.1z"/>
<path d="M115.8,338.1v-0.3c0-20.9,16.8-37.8,39.5-37.8s39.2,16.7,39.2,37.6v0.3c0,20.9-16.8,37.8-39.5,37.8S115.8,359,115.8,338.1z
	 M174.1,338.1v-0.3c0-10.7-7.7-20.1-19.1-20.1c-11.8,0-18.9,9.1-18.9,19.9v0.3c0,10.7,7.7,20.1,19.1,20.1
	C167.1,358,174.1,348.9,174.1,338.1z"/>
<path d="M203.4,348.5v-47.1H224V342c0,9.8,4.6,14.8,12.5,14.8s12.9-5,12.9-14.8v-40.6H270v72.7h-20.6v-10.3
	c-4.8,6.1-10.9,11.6-21.3,11.6C212.5,375.4,203.4,365.1,203.4,348.5z"/>
<path d="M279.8,337.9v-0.3c0-24.3,15.9-37.6,33.1-37.6c8.8-0.2,17.3,3.9,22.7,10.9v-35.8h20.6v99h-20.7v-10.4
	c-5,6.8-11.9,11.8-22.7,11.8C295.9,375.4,279.8,362.2,279.8,337.9z M335.8,337.9v-0.3c0-12.1-8-20.1-17.6-20.1
	c-9.6,0-17.8,7.9-17.8,20.1v0.3c0,12.1,8.1,20.1,17.8,20.1C327.8,358,335.8,349.9,335.8,337.9L335.8,337.9z"/>
<path d="M369.5,275.1h21.7v18.3h-21.7V275.1z M370.1,301.4h20.6v72.7h-20.6V301.4L370.1,301.4z"/>
<path d="M404.7,301.4h20.6v10.3c4.8-6.1,10.9-11.6,21.3-11.6c15.6,0,24.7,10.3,24.7,27v47.1h-20.6v-40.6c0-9.8-4.6-14.8-12.5-14.8
	s-12.9,5-12.9,14.8v40.5h-20.6V301.4z"/>
<path d="M484.1,275.1h21.7v18.3h-21.7V275.1z M484.7,301.4h20.6v72.7h-20.6L484.7,301.4L484.7,301.4z"/>
<path class="st0" d="M521.1,360.9v13.2h11.6C527.4,371.2,523.3,366.5,521.1,360.9z"/>
<path class="st0" d="M569.7,347.1c-0.2-13.5-11.1-24.3-24.6-24.5c-9-0.6-17.7,2.8-24,9.1v12.8c3.4-9.4,12.4-15.7,22.5-15.5
	c10.7,0.1,18.9,8.2,19,17.3c0,8.7-3.6,15.1-13.5,16.7c-5.4,0.9-13.8-2.3-13.4-10.4c0.1-3.7,3.2-6.5,6.8-6.4c0.1,0,0.2,0,0.3,0
	c-3.7,5,1.2,8.5,4.6,7.7c3.5-0.8,6-4,6-7.6c0-3.1-2.9-8-10.1-7.9c-8-0.1-14.5,6.2-14.7,14.2c0,0.1,0,0.2,0,0.4
	c-0.2,9.9,9.1,16.6,18.7,16.6C561.4,369.8,569.7,360.6,569.7,347.1z"/>
<path class="st0" d="M521.1,301.4v20.9c6.9-5.2,15.4-8,24-7.9c20.6,0,33.7,14.4,33.7,32.6c0,12.6-5.9,22.1-15.1,27.1h30.1v-72.7
	H521.1z"/>
<path class="st0" d="M604.8,303.9h-3.7v-2.5h9.9v2.5h-3.7v9.6h-2.6L604.8,303.9L604.8,303.9z"/>
<path class="st0" d="M613.2,301.4h2.9l3.2,5.1l3.2-5.1h2.9v12h-2.6v-7.9l-3.4,5.1l0,0l-3.3-5.1v7.8h-2.7V301.4z"/>
</svg>
